Coordinates
version=1
nRows=6
nColumns=34
inDegrees=yes

Units are S.I. units (second, meters, Newtons, ...)
If the header above contains a line with 'inDegrees', this indicates whether rotational values are in degrees (yes) or radians (no).

endheader
time	pelvis_tilt	pelvis_list	pelvis_rotation	pelvis_tx	pelvis_ty	pelvis_tz	hip_flexion_r	hip_adduction_r	hip_rotation_r	knee_angle_r	ankle_angle_r	subtalar_angle_r	mtp_angle_r	hip_flexion_l	hip_adduction_l	hip_rotation_l	knee_angle_l	ankle_angle_l	subtalar_angle_l	mtp_angle_l	lumbar_extension	lumbar_bending	lumbar_rotation	arm_flex_r	arm_add_r	arm_rot_r	elbow_flex_r	pro_sup_r	arm_flex_l	arm_add_l	arm_rot_l	elbow_flex_l	pro_sup_l
      2.68333330	     -8.30221511	     -1.38550636	      4.90312636	      0.03158939	      0.83735456	     -0.08137660	     10.21761595	     -1.18345144	      2.56860121	     10.62824331	      9.25288723	    -17.87311496	      0.00000000	      9.33357426	      2.12638913	     -3.44639066	      9.61647107	      9.50840310	    -10.91691550	      0.00000000	     -0.22653039	     -0.26778663	     -0.44277969	     90.80252067	      8.65591364	     69.56745129	    118.70625965	    105.56540336	     77.63935998	      5.13776161	     66.22094349	    133.36370653	     96.56517437
      2.70000000	     -8.31333618	     -1.47914141	      4.85115968	      0.03104548	      0.83605470	     -0.08295057	     10.42698772	     -1.20130113	      2.49901941	     10.49245349	      9.20425134	    -17.87366206	      0.00000000	      9.54793637	      2.17179005	     -3.47884992	      9.59724676	      9.50491391	    -10.95278436	      0.00000000	     -0.58663240	     -0.33562232	     -0.40171553	     90.73802502	      8.60704818	     69.57508911	    118.62441157	    105.56826371	     77.56262967	      5.09023245	     66.19611851	    133.37739941	     96.55727362
      2.71666670	     -8.88220236	     -1.53387247	      4.78557578	      0.02822710	      0.83623393	     -0.08472605	     11.43586166	     -1.37799604	      2.19017998	     10.65080266	      8.50007008	    -17.82063572	      0.00000000	     10.85497755	      2.30881996	     -3.30693086	     10.43074691	      9.04571395	    -12.25429527	      0.00000000	     -0.14065831	     -0.10176280	     -0.19989889	     90.20232041	      8.99166963	     69.32760545	    117.13603144	    105.73062599	     76.30861119	      4.83205646	     64.52784279	    134.96630065	     96.06864661
      2.73333330	     -8.90975146	     -1.53597040	      4.82042000	      0.02634772	      0.83520149	     -0.08643841	     11.59632882	     -1.55555307	      1.97933910	     10.48959844	      8.17618541	    -17.71415754	      0.00000000	     11.30615997	      2.48037499	     -3.38688780	     10.76809338	      8.94820403	    -12.33793745	      0.00000000	     -0.49065879	     -0.08662102	      0.08865620	     90.08790832	      8.99134191	     69.26718163	    117.04714666	    105.74332512	     76.40147093	      4.89684221	     64.39699671	    135.16869285	     96.03805244
      2.75000000	     -9.01157612	     -1.63787155	      4.84272676	      0.02504844	      0.83653492	     -0.08763848	     11.78020282	     -1.60046032	      1.93685830	     10.31845581	      8.13177422	    -17.69102190	      0.00000000	     11.58394995	      2.52948675	     -3.41330964	     10.69769061	      8.94941597	    -12.37332231	      0.00000000	     -0.85946590	     -0.12983594	      0.17896646	     90.01802191	      8.95083197	     69.25676252	    116.97370112	    105.74575560	     76.38494430	      4.85371858	     64.36140253	    135.16602856	     96.03117889
      2.76666670	     -9.64137995	     -1.77993475	      4.77661165	      0.02441404	      0.83805718	     -0.08865198	     12.58093973	     -1.69164498	      1.53698616	     10.19463344	      7.69782401	    -17.13425514	      0.00000000	     12.77279693	      2.53611627	     -3.18889532	     11.35424569	      8.49844667	    -13.34928783	      0.00000000	     -0.29906659	      0.13252235	      0.46663937	     88.68196697	      9.13936970	     68.97287377	    116.49396966	    105.88228483	     75.40495861	      4.55702898	     63.48891034	    135.75728228	     95.74191374
